<?xml version="1.0" standalone="no"?>
<!DOCTYPE svg PUBLIC "-//W3C//DTD SVG 20010904//EN"
 "http://www.w3.org/TR/2001/REC-SVG-20010904/DTD/svg10.dtd">
<svg version="1.0" xmlns="http://www.w3.org/2000/svg"
 width="16.000000pt" height="16.000000pt" viewBox="0 0 16.000000 16.000000"
 preserveAspectRatio="xMidYMid meet">
<metadata>
Created by potrace 1.11, written by Peter Selinger 2001-2013
</metadata>
<g transform="translate(0.000000,16.000000) scale(0.006154,-0.006154)"
fill="#000000" stroke="none">
<path d="M0 1300 l0 -1300 1300 0 1300 0 0 1300 0 1300 -1300 0 -1300 0 0
-1300z m725 369 c97 -67 92 -199 -10 -257 -135 -77 -297 82 -212 209 50 75
150 97 222 48z m-386 10 c50 -17 68 -74 35 -110 -14 -15 -13 -19 10 -42 34
-34 33 -62 -3 -98 -28 -28 -33 -29 -120 -29 l-91 0 0 145 0 145 69 0 c37 0 82
-5 100 -11z m655 -86 c45 -50 84 -91 89 -92 4 -1 7 42 7 95 0 72 3 95 13 92
15 -6 23 -298 8 -298 -6 0 -53 50 -106 110 l-95 111 0 -106 c0 -87 -3 -105
-15 -105 -13 0 -15 23 -15 146 0 130 2 145 17 142 9 -2 53 -44 97 -95z m308
-10 c47 -101 51 -106 61 -83 64 154 107 224 107 175 0 -23 -117 -279 -129
-283 -10 -3 -126 229 -137 275 -5 20 -2 23 21 23 24 0 31 -10 77 -107z m451
92 c1 -6 -29 -11 -70 -13 l-73 -3 0 -44 0 -45 51 0 c66 0 62 -24 -4 -28 l-47
-3 0 -54 0 -54 73 -3 c107 -4 84 -23 -33 -26 l-100 -3 0 139 c0 76 3 142 7
146 11 10 193 2 196 -9z m257 0 c50 -26 53 -102 4 -128 l-25 -13 65 -86 c35
-47 74 -88 85 -91 43 -11 18 -24 -57 -30 -43 -3 -156 -22 -252 -41 -361 -73
-567 -81 -855 -36 -170 26 -433 85 -501 110 -46 18 -16 29 39 14 91 -24 438
-83 552 -94 135 -12 358 -13 485 0 52 5 188 23 301 41 l206 33 -62 86 c-35 47
-69 85 -77 85 -9 0 -14 -18 -16 -62 -3 -59 -4 -63 -27 -63 l-25 0 0 145 0 145
65 0 c40 0 78 -6 95 -15z m337 -126 c34 -74 62 -138 63 -142 0 -5 -12 -7 -27
-5 -22 2 -32 12 -47 46 l-19 42 -58 0 -58 0 -20 -45 c-12 -27 -26 -45 -36 -45
-21 0 -18 10 56 165 36 76 65 125 72 122 7 -2 40 -64 74 -138z m61 -575 l3
-131 -688 -7 c-378 -3 -769 -4 -868 -1 -99 3 -291 5 -427 5 l-248 0 0 130 0
130 353 3 c193 1 694 2 1112 2 l760 0 3 -131z"/>
<path d="M585 1648 c-50 -44 -52 -153 -4 -204 32 -35 94 -30 122 8 44 60 27
187 -28 208 -40 15 -61 12 -90 -12z"/>
<path d="M230 1610 c0 -49 1 -50 31 -50 47 0 69 16 69 51 0 32 -27 49 -76 49
-22 0 -24 -4 -24 -50z"/>
<path d="M230 1484 l0 -54 40 0 c38 0 80 26 80 49 0 23 -38 49 -77 54 l-43 5
0 -54z"/>
<path d="M1907 1653 c-4 -3 -7 -26 -7 -50 0 -42 1 -43 33 -43 18 0 38 5 45 12
17 17 15 54 -4 72 -16 16 -55 22 -67 9z"/>
<path d="M2237 1565 c-9 -20 -17 -38 -17 -40 0 -3 18 -5 40 -5 22 0 40 2 40 5
0 11 -34 75 -40 75 -3 0 -14 -16 -23 -35z"/>
</g>
</svg>
